<?xml version="1.0" encoding="UTF-8"?>
<svg id="Layer_2" xmlns="http://www.w3.org/2000/svg" width="997.8" height="261.6" version="1.1" viewBox="0 0 997.8 261.6">
  <!-- Generator: Adobe Illustrator 29.8.0, SVG Export Plug-In . SVG Version: 2.1.1 Build 160)  -->
  <defs>
    <style>
      .st0 {
        fill: #09090b;
      }

      .st1 {
        fill: #e9ebe6;
      }
    </style>
  </defs>
  <rect class="st0" x="1.1" y=".3057" width="260.9887" height="260.9887" rx="69.7551" ry="69.7551"/>
  <path class="st1" d="M111.225,120.0516l35.6212-20.8726-3.7556-12.0164-36.8737,21.515,4.9909,11.3914.0172-.0173Z"/>
  <path class="st1" d="M149.9678,177.6165l-43.1161-25.3012,3.1213-11.3913,43.7342,25.2999-3.7568,11.3925h.0174Z"/>
  <path class="st1" d="M198.967,205.7116l-21.7125,12.7465c-2.9496,1.7364-6.6031,1.7364-9.5701,0l-21.7125-12.7465c-2.9322-1.719-4.7508-4.914-4.7508-8.3519v-26.2043c0-3.4379,1.8186-6.6155,4.7508-8.3519l21.7125-12.7452c2.9496-1.7364,6.6031-1.7364,9.5701,0l21.7125,12.7452c2.9322,1.719,4.7508,4.914,4.7508,8.3519v26.2043c0,3.4379-1.8186,6.6155-4.7508,8.3519Z"/>
  <path class="st1" d="M112.4769,117.3773v26.2037c0,3.4379-1.818,6.6155-4.7507,8.3519l-.7889.4696-18.8313-10.8357,10.6161,15.6625-12.7085,7.4675c-2.9498,1.7364-6.6028,1.7364-9.5699,0l-21.7125-12.7465c-2.9327-1.719-4.7507-4.914-4.7507-8.3519v-26.2039c0-3.4382,1.818-6.616,4.7507-8.3524l21.7125-12.7459c2.9499-1.7364,6.6029-1.7364,9.5699,0l21.7125,12.7459c2.9327,1.7191,4.7507,4.9143,4.7507,8.3524v-.0173Z"/>
  <path class="st1" d="M198.967,98.7969l-21.7125,12.7458c-2.9496,1.7365-6.6031,1.7365-9.5701,0l-11.7313-6.8938,12.1424-18.1463-21.3351,12.7458-.7885-.4514c-2.9322-1.7192-4.7508-4.9142-4.7508-8.3525v-26.2035c0-3.4383,1.8186-6.616,4.7508-8.3526l21.7125-12.7458c2.9496-1.7365,6.6031-1.7365,9.5701,0l21.7125,12.7458c2.9322,1.7191,4.7508,4.9142,4.7508,8.3526v26.2035c0,3.4383-1.8186,6.616-4.7508,8.3525Z"/>
  <path class="st0" d="M311.9129,67.3925h18.9585v47.7861c7.2707-8.9588,17.7763-14.3631,30.4643-14.3631,24.21,0,42.4958,19.4228,42.4958,45.0836s-18.2858,45.0842-42.4958,45.0842c-12.688,0-23.1936-5.4035-30.4643-14.3633v12.333h-18.9585v-121.5605ZM384.2017,145.9178c0-15.1979-11.3427-26.8582-26.5742-26.8582s-26.7374,11.6603-26.7374,26.8582,11.5059,26.8582,26.7374,26.8582,26.5742-11.6616,26.5742-26.8582Z"/>
  <path class="st0" d="M412.3927,145.9166c0-25.661,19.8129-45.0837,46.2041-45.0837s46.2053,19.4227,46.2053,45.0837-19.9761,45.0842-46.2053,45.0842-46.2041-19.4231-46.2041-45.0842ZM485.1709,145.9166c0-15.1967-11.3414-26.858-26.5742-26.858s-26.7374,11.6613-26.7374,26.858,11.5059,26.8582,26.7374,26.8582,26.5742-11.6603,26.5742-26.8582Z"/>
  <path class="st0" d="M524.6685,162.4747v-42.3999h-14.5602v-17.2284h8.7979c4.3983,0,6.7613-2.3576,6.7613-6.7644v-16.5575h17.9407v23.3037h21.3201v17.2284h-21.3201v39.3538c0,7.5983,4.7434,12.1685,12.6867,12.1685h8.6334v17.3914h-11.3414c-18.7953,0-28.9372-9.4481-28.9372-26.5132l.0187.0174Z"/>
  <path class="st0" d="M582.7695,102.864h18.9584v12.332c7.2707-8.9588,17.7763-14.3631,30.463-14.3631,24.2112,0,42.4784,19.4227,42.4784,45.0837s-18.2858,45.0842-42.4784,45.0842c-12.6867,0-23.1923-5.4048-30.463-14.3633v44.4128h-18.9584v-118.1863ZM655.057,145.9166c0-15.1967-11.3415-26.858-26.5742-26.858s-26.7374,11.6613-26.7374,26.858,11.5059,26.8582,26.7374,26.8582,26.5742-11.6603,26.5742-26.8582Z"/>
  <path class="st0" d="M689.0576,102.8646h18.9573v14.3629c6.7625-9.793,16.7586-15.705,28.9371-15.705h3.0543v19.4228h-3.0543c-18.2858,0-28.9371,10.3002-28.9371,26.1695v41.873h-18.9573v-86.1233Z"/>
  <path class="st0" d="M745.0759,145.9166c0-25.661,19.8117-45.0837,46.0408-45.0837s46.2041,19.4227,46.2041,45.2656c0,2.3567-.1632,4.8966-.5095,7.0901h-71.4329c2.8724,12.4961,13.0329,20.7659,26.5742,20.7659,9.9787,0,18.6121-4.3896,23.0291-10.9727h20.9938c-6.9431,16.7213-23.865,28.0378-44.3505,28.0378-26.7374,0-46.5491-19.4231-46.5491-45.0842v-.0187ZM765.5603,137.6469h51.4581c-2.8725-11.8235-13.033-19.767-25.9016-19.767s-22.5023,7.7616-25.5565,19.767Z"/>
  <path class="st0" d="M848.519,163.6531h19.3022c0,6.5831,6.2718,10.9715,15.396,10.9715,8.4702,0,14.0506-3.8801,14.0506-9.2849,0-15.5417-47.4048-6.9282-47.4048-37.4859,0-16.7202,13.378-27.0209,32.4997-27.0209s32.8447,10.6453,32.8447,26.1689h-19.3035c0-5.9119-5.5792-9.956-13.7044-9.956s-13.1962,3.5545-13.1962,8.7777c0,15.0335,47.568,6.7463,47.568,37.4847,0,16.7213-13.378,27.6928-33.5174,27.6928s-34.535-11.1533-34.535-27.3664v.0187Z"/>
  <path class="st0" d="M928.6477,163.6531h19.3035c0,6.5831,6.2717,10.9715,15.3959,10.9715,8.4702,0,14.0507-3.8801,14.0507-9.2849,0-15.5417-47.4048-6.9282-47.4048-37.4859,0-16.7202,13.378-27.0209,32.4997-27.0209s32.8447,10.6453,32.8447,26.1689h-19.3035c0-5.9119-5.5804-9.956-13.7044-9.956s-13.1962,3.5545-13.1962,8.7777c0,15.0335,47.5668,6.7463,47.5668,37.4847,0,16.7213-13.3768,27.6928-33.5174,27.6928s-34.535-11.1533-34.535-27.3664v.0187Z"/>
</svg>