<svg width="198" height="191" viewBox="0 0 198 191" fill="none" xmlns="http://www.w3.org/2000/svg">
<path d="M169.294 190.128V162.948H197.525V190.128H169.294ZM169.294 135.812V54.3161H197.525V135.812H169.294ZM169.294 27.18V0H197.525V27.18H169.294ZM141.063 162.992V135.812H169.294V162.992H141.063ZM141.063 54.3161V27.136H169.294V54.3161H141.063ZM56.4162 190.128V162.948H141.063V190.128H56.4162ZM56.4162 27.18V0H141.063V27.18H56.4162ZM28.2309 162.992V135.812H56.4619V162.992H28.2309ZM28.2309 54.3161V27.136H56.4619V54.3161H28.2309ZM0 190.128V162.948H28.2309V190.128H0ZM0 135.812V54.3161H28.2309V135.812H0ZM0 27.18V0H28.2309V27.18H0Z" fill="#3D9DFF"/>
</svg>
