<?xml version="1.0" encoding="UTF-8"?>
<svg id="Layer_2" data-name="Layer 2" xmlns="http://www.w3.org/2000/svg" viewBox="0 0 948.16 185.98">
  <defs>
    <style>
      .cls-1 {
        fill: #090909;
      }
    </style>
  </defs>
  <g id="text">
    <g>
      <path class="cls-1" d="M10.26,162.49v-25h10.26v25h10.26v12.5H0v-12.5h10.26ZM30.79,99.99v37.5h-10.26v-37.5h10.26ZM102.64,124.99v25h-10.26v25h-20.53v-37.5h-10.26v-50h-10.26v-37.5h-10.26V12.5h-10.26V0h30.79v37.5h10.26v50h10.26v50h10.26v-12.5h10.26ZM41.06,50v50h-10.26v-50h10.26ZM112.9,99.99v25h-10.26v-25h10.26ZM123.17,87.49v12.5h-10.26v-12.5h10.26ZM133.43,162.49v-25h10.26v-37.5h10.26v-50h10.26v-25h-10.26V0h41.06v12.5h-10.26v37.5h-10.26v50h-10.26v37.5h-10.26v25h10.26v12.5h-41.06v-12.5h10.26ZM133.43,62.5v25h-10.26v-25h10.26ZM143.7,37.5v25h-10.26v-25h10.26ZM153.96,25v12.5h-10.26v-12.5h10.26Z"/>
      <path class="cls-1" d="M211.44,25v12.5h-10.26v-12.5h10.26ZM221.7,162.49v-25h10.26v-37.5h10.26v-50h10.26V12.5h-30.79v12.5h-10.26V0h112.9v25h-10.26v-12.5h-41.06v37.5h-10.26v50h-10.26v37.5h-10.26v25h10.26v12.5h-41.06v-12.5h10.26ZM314.08,25v12.5h-10.26v-12.5h10.26Z"/>
      <path class="cls-1" d="M320.24,162.49v-25h10.26v-37.5h10.26v-50h10.26V12.5h-10.26V0h41.06v12.5h-10.26v37.5h-10.26v50h-10.26v37.5h-10.26v25h61.58v-12.5h10.26v25h-102.64v-12.5h10.26ZM422.88,124.99v25h-10.26v-25h10.26Z"/>
      <path class="cls-1" d="M512.15,175.89v10.08h-74.54v-10.08h74.54Z"/>
      <path class="cls-1" d="M523.68,148.33v-48.67h9.99v-24.34h9.99v-12.17h19.99v12.17h-9.99v24.34h-9.99v48.67h9.99v12.17h19.98v12.17h-29.98v-12.17h-9.99v-12.17h-9.99ZM593.63,50.99v12.17h9.99v24.34h-19.98v-24.34h-19.99v-12.17h29.98ZM593.63,148.33v12.17h-19.99v-12.17h19.99ZM603.62,136.16v12.17h-9.99v-12.17h9.99Z"/>
      <path class="cls-1" d="M615.21,148.33v-48.67h9.99v-24.34h9.99v-12.17h19.99v12.17h-9.99v24.34h-9.99v48.67h9.99v12.17h29.98v12.17h-39.97v-12.17h-9.99v-12.17h-9.99ZM685.16,148.33v-24.33h9.99v-48.67h-9.99v-12.17h-29.98v-12.17h39.97v12.17h9.99v12.17h9.99v48.67h-9.99v24.33h-9.99v12.17h-19.98v-12.17h9.99Z"/>
      <path class="cls-1" d="M726.72,160.5v-48.67h9.99v-24.34h9.99v-12.17h19.99v12.17h-9.99v24.34h-9.99v36.5h9.99v12.17h19.99v12.17h-39.97v-12.17h-9.99ZM786.68,63.16v12.17h-19.99v-12.17h19.99ZM786.68,148.33v12.17h-9.99v-12.17h9.99ZM796.67,136.16v-12.17h9.99v-24.34h9.99v-36.5h-29.98v-12.17h39.97V14.49h-19.99V2.32h39.97v48.67h-9.99v48.67h-9.99v36.5h-9.99v24.34h9.99v12.17h-29.98v-24.34h-9.99v-12.17h9.99ZM836.64,148.33v12.17h-9.99v-12.17h9.99Z"/>
      <path class="cls-1" d="M858.22,148.33v-48.67h9.99v-24.34h9.99v-12.17h19.99v12.17h-9.99v24.34h-9.99v24.34h19.99v12.17h-19.99v12.17h9.99v12.17h29.98v12.17h-39.97v-12.17h-9.99v-12.17h-9.99ZM928.17,99.66v-36.5h-29.98v-12.17h39.97v12.17h9.99v36.5h-9.99v12.17h-19.98v-12.17h9.99ZM918.18,111.83v12.17h-19.99v-12.17h19.99ZM938.17,148.33v12.17h-19.98v-12.17h19.98ZM948.16,136.16v12.17h-9.99v-12.17h9.99Z"/>
    </g>
  </g>
</svg>